<svg xmlns="http://www.w3.org/2000/svg" width="485.719" height="37.988" viewBox="0 0 485.719 37.988">
  <g id="Grupo_1115" data-name="Grupo 1115" transform="translate(-147.244 -11.223)">
    <g id="Grupo_288" data-name="Grupo 288" transform="translate(-279.756 -1)">
      <path id="Caminho_111" data-name="Caminho 111" d="M578.748,220.918a4.442,4.442,0,0,0-4.442,4.442v15.983l7.582,7.582a4.426,4.426,0,0,1,1.3,3.147V225.36a4.442,4.442,0,0,0-4.442-4.442" transform="translate(-120.654 -207.215)" fill="#8a88ad"/>
      <path id="Caminho_112" data-name="Caminho 112" d="M595.748,220.973a4.441,4.441,0,0,0-4.442,4.442v26.679a4.442,4.442,0,0,1,4.442-4.414h4.442v-4.441h-4.442a4.442,4.442,0,0,1,0-8.884h4.442v-4.443h-4.442a4.442,4.442,0,0,1,0-8.884h.7a4.5,4.5,0,0,0-.7-.055" transform="translate(-120.654 -207.215)" fill="#3ec2cf"/>
      <path id="Caminho_113" data-name="Caminho 113" d="M616.242,234.355H600.19v8.884h16.052a4.442,4.442,0,1,0,0-8.884" transform="translate(-120.654 -207.215)" fill="#8a88ad"/>
      <path id="Caminho_114" data-name="Caminho 114" d="M600.19,234.355h-4.442a4.442,4.442,0,0,0,0,8.884h4.442v-8.884" transform="translate(-120.654 -207.215)" fill="#22678c"/>
      <path id="Caminho_115" data-name="Caminho 115" d="M616.242,221.028H596.449a4.444,4.444,0,0,1,3.741,4.387v4.5h16.052a4.442,4.442,0,1,0,0-8.884" transform="translate(-120.654 -207.215)" fill="#8a88ad"/>
      <path id="Caminho_116" data-name="Caminho 116" d="M596.449,221.028h-.7a4.442,4.442,0,0,0,0,8.884h4.442v-4.5a4.444,4.444,0,0,0-3.741-4.387" transform="translate(-120.654 -207.215)" fill="#22678c"/>
      <path id="Caminho_117" data-name="Caminho 117" d="M616.242,247.68H600.19v4.386a4.442,4.442,0,0,1-8.884.028v.028a4.442,4.442,0,0,0,4.442,4.442h20.494a4.442,4.442,0,1,0,0-8.884" transform="translate(-120.654 -207.215)" fill="#8a88ad"/>
      <path id="Caminho_118" data-name="Caminho 118" d="M600.19,247.68h-4.442a4.415,4.415,0,1,0,4.442,4.386V247.68" transform="translate(-120.654 -207.215)" fill="#22678c"/>
      <path id="Caminho_119" data-name="Caminho 119" d="M552.095,220.918a4.441,4.441,0,0,0-4.441,4.442v26.651a4.441,4.441,0,0,0,8.883,0V236.137l-7.582-7.582a4.442,4.442,0,0,1,6.282-6.282l.384.384a4.433,4.433,0,0,0-3.526-1.739" transform="translate(-120.654 -207.215)" fill="#8a88ad"/>
      <path id="Caminho_120" data-name="Caminho 120" d="M555.621,222.657a4.42,4.42,0,0,1,.916,2.7v10.777l19.069,19.07a4.442,4.442,0,0,0,7.583-3.135,4.442,4.442,0,0,1-8.883-.061V241.343l-18.685-18.686" transform="translate(-120.654 -207.215)" fill="#3ec2cf"/>
      <path id="Caminho_121" data-name="Caminho 121" d="M574.306,241.343v10.668a4.442,4.442,0,1,0,7.582-3.086l-7.582-7.582" transform="translate(-120.654 -207.215)" fill="#22678c"/>
      <path id="Caminho_122" data-name="Caminho 122" d="M552.1,220.973a4.441,4.441,0,0,0-3.141,7.582l7.582,7.582V225.36a4.42,4.42,0,0,0-.916-2.7l-.384-.384a4.428,4.428,0,0,0-3.141-1.3" transform="translate(-120.654 -207.215)" fill="#22678c"/>
      <path id="Caminho_123" data-name="Caminho 123" d="M650,238.685l-6.282,6.282L653.9,255.151a4.442,4.442,0,1,0,6.282-6.281L650,238.685M630.39,220.918a4.441,4.441,0,0,0-3.14,7.582l10.185,10.185,6.282-6.282-10.185-10.185a4.432,4.432,0,0,0-3.142-1.3" transform="translate(-120.654 -207.215)" fill="#3ec2cf"/>
      <path id="Caminho_124" data-name="Caminho 124" d="M637.435,238.685,627.25,248.87a4.442,4.442,0,0,0,6.282,6.282l10.185-10.185-6.282-6.282m19.607-17.767a4.429,4.429,0,0,0-3.141,1.3L643.717,232.4,650,238.685,660.183,228.5a4.441,4.441,0,0,0-3.141-7.582" transform="translate(-120.654 -207.215)" fill="#8a88ad"/>
      <path id="Caminho_125" data-name="Caminho 125" d="M643.717,232.4l-6.282,6.282,6.282,6.282L650,238.685l-6.282-6.282" transform="translate(-120.654 -207.215)" fill="#22678c"/>
      <path id="Caminho_126" data-name="Caminho 126" d="M682.383,221.028a4.4,4.4,0,1,1,0,8.8v.024h0a8.97,8.97,0,1,1,0,17.939v.022a4.4,4.4,0,1,1,0,8.8h0a17.8,17.8,0,0,0,0-35.591" transform="translate(-120.654 -207.215)" fill="#3ec2cf"/>
      <path id="Caminho_127" data-name="Caminho 127" d="M682.383,221.028a17.8,17.8,0,1,0,0,35.591,4.4,4.4,0,1,1,0-8.8v-.022h0a8.97,8.97,0,1,1,0-17.939v-.024a4.4,4.4,0,1,1,0-8.8h0" transform="translate(-120.654 -207.215)" fill="#8a88ad"/>
      <path id="Caminho_128" data-name="Caminho 128" d="M682.383,247.794h0v.022a4.4,4.4,0,1,0,0,8.8h0a4.4,4.4,0,1,0,0-8.8v-.022m0-26.766a4.4,4.4,0,1,0,0,8.8v.024h0v-.024a4.4,4.4,0,1,0,0-8.8h0" transform="translate(-120.654 -207.215)" fill="#22678c"/>
    </g>
    <rect id="Retângulo_45" data-name="Retângulo 45" width="183.449" height="37.987" rx="12.555" transform="translate(449.514 11.223)" fill="#7864b4"/>
    <path id="Caminho_266" data-name="Caminho 266" d="M755.007,57.444H587.957V19.456h167.05L747.229,38.45Z" transform="translate(-276.783 -8.234)" fill="#5a8bc7"/>
    <text id="PÚBLICAS" transform="translate(480.396 15.267)" fill="#fff" font-size="26" font-family="GothamRndSSm-Book, Gotham Rnd SSm" letter-spacing="-0.01em"><tspan x="0" y="25">PÚBLICAS</tspan></text>
    <text id="POLÍTICAS" transform="translate(316.162 15.267)" fill="#fff" font-size="26" font-family="GothamRndSSm-Book, Gotham Rnd SSm" letter-spacing="-0.01em"><tspan x="0" y="25">POLÍTICAS</tspan></text>
  </g>
</svg>
